<?xml version="1.0" encoding="UTF-8" standalone="no"?>
<svg
   xmlns:dc="http://purl.org/dc/elements/1.1/"
   xmlns:cc="http://creativecommons.org/ns#"
   xmlns:rdf="http://www.w3.org/1999/02/22-rdf-syntax-ns#"
   xmlns:svg="http://www.w3.org/2000/svg"
   xmlns="http://www.w3.org/2000/svg"
   xmlns:sodipodi="http://sodipodi.sourceforge.net/DTD/sodipodi-0.dtd"
   xmlns:inkscape="http://www.inkscape.org/namespaces/inkscape"
   version="1.1"
   id="Capa_1"
   x="0px"
   y="0px"
   viewBox="0 0 512 512"
   style="enable-background:new 0 0 512 512;"
   xml:space="preserve"
   sodipodi:docname="mail.svg"
   inkscape:version="1.0 (4035a4fb49, 2020-05-01)"><metadata
   id="metadata51"><rdf:RDF><cc:Work
       rdf:about=""><dc:format>image/svg+xml</dc:format><dc:type
         rdf:resource="http://purl.org/dc/dcmitype/StillImage" /></cc:Work></rdf:RDF></metadata><defs
   id="defs49" /><sodipodi:namedview
   inkscape:document-rotation="0"
   pagecolor="#ffffff"
   bordercolor="#666666"
   borderopacity="1"
   objecttolerance="10"
   gridtolerance="10"
   guidetolerance="10"
   inkscape:pageopacity="0"
   inkscape:pageshadow="2"
   inkscape:window-width="1920"
   inkscape:window-height="986"
   id="namedview47"
   showgrid="false"
   inkscape:zoom="1.4142136"
   inkscape:cx="254.14235"
   inkscape:cy="195.26048"
   inkscape:window-x="-11"
   inkscape:window-y="-11"
   inkscape:window-maximized="1"
   inkscape:current-layer="Capa_1" />



<g
   id="g16">
</g>
<g
   id="g18">
</g>
<g
   id="g20">
</g>
<g
   id="g22">
</g>
<g
   id="g24">
</g>
<g
   id="g26">
</g>
<g
   id="g28">
</g>
<g
   id="g30">
</g>
<g
   id="g32">
</g>
<g
   id="g34">
</g>
<g
   id="g36">
</g>
<g
   id="g38">
</g>
<g
   id="g40">
</g>
<g
   id="g42">
</g>
<g
   id="g44">
</g>
<path
   style="fill:#000000;stroke-width:0.707107"
   d="M 236.54873,510.9618 C 173.27512,505.61799 117.1319,479.26588 73.172447,434.27738 53.650963,414.29893 39.428683,394.28776 26.99898,369.30994 7.5117213,330.1498 -1.2363117,288.29945 0.78272735,243.89212 4.8179356,155.14059 54.594326,75.410826 133.17336,31.834272 161.22118,16.280152 193.88375,5.9300794 227.7099,1.8776479 c 14.09757,-1.68891393 42.47097,-1.68891393 56.56854,0 59.29621,7.1037901 111.04563,32.1529651 152.75822,73.9422391 43.17075,43.250123 69.00138,99.488963 73.90519,160.907533 l 0.45166,5.65686 -47.62332,-47.55448 -47.62331,-47.55446 -160.48705,0.17831 -160.487057,0.17832 60.003167,62.57895 c 33.00175,34.41842 63.24076,65.76093 67.19783,69.65002 3.95706,3.88908 10.34798,10.35656 14.20204,14.37215 7.79881,8.12569 7.69385,8.31294 -2.35376,4.19954 -8.35393,-3.42002 -14.60448,-8.0787 -24.55954,-18.30481 -26.79716,-27.52675 -70.51638,-72.2845 -84.87139,-86.88746 -8.98417,-9.13936 -20.74006,-21.15134 -26.124186,-26.69328 -5.38413,-5.54195 -10.053672,-10.07628 -10.376756,-10.07628 -0.323084,0 -0.587422,44.79725 -0.587422,99.54944 v 99.54943 l 3.889087,3.84078 c 2.138998,2.11242 3.889087,4.16927 3.889087,4.57077 0,0.4015 33.01248,33.74361 73.36106,74.09359 44.92588,44.92745 72.81338,73.31752 71.94811,73.24473 -0.77712,-0.0654 -2.68573,-0.22636 -4.24137,-0.35774 z"
   id="path145" /><path
   style="fill:#000000;stroke-width:0.707107"
   d="m 92.653382,359.05779 -3.855537,-3.90404 8.890241,-9.00858 c 6.769184,-6.8593 51.258914,-52.69621 85.612124,-88.20454 l 2.05232,-2.12132 3.14094,3.53553 c 1.72751,1.94454 3.14387,3.76941 3.14746,4.05526 0.005,0.40012 -74.8385,78.78248 -91.842452,96.18505 l -3.289559,3.36667 z"
   id="path147" /><path
   style="fill:#000000;stroke-width:0.707107"
   d="M 170.0807,438.49899 97.248697,365.42086 256.5245,365.24254 c 87.60169,-0.0981 159.2758,-0.43429 159.2758,-0.74714 0,-0.62908 -95.94775,-100.76809 -96.88261,-101.11472 -0.3216,-0.11924 -7.21284,6.43626 -15.31388,14.56778 -13.83592,13.88796 -15.11805,14.98189 -21.14137,18.03814 -9.93186,5.03946 -15.81588,6.45168 -26.99449,6.47893 l -9.36505,0.0228 -7.60552,-7.69408 c -4.18302,-4.23174 -7.1282,-7.51125 -6.54484,-7.28781 0.58336,0.22345 3.11353,1.25831 5.62259,2.29968 13.58482,5.6383 28.86248,4.55894 42.36698,-2.99321 5.99051,-3.35008 7.203,-4.56812 77.54107,-77.89513 l 58.55539,-61.04365 47.51153,47.50762 47.51153,47.50761 0.45042,6.46497 c 0.54604,7.83741 -0.55826,29.32717 -2.0672,40.22803 -4.04867,29.2482 -11.35532,53.05475 -24.36131,79.37401 -12.93885,26.18339 -26.70314,45.58478 -46.85629,66.04609 -40.9658,41.59217 -90.8534,66.42941 -150.05972,74.70933 -4.45806,0.62345 -15.77666,1.25372 -26.51651,1.47654 l -18.73833,0.38877 z M 424.28558,256.17286 c 0,-54.83613 -0.2432,-99.70206 -0.54044,-99.70206 -0.53362,0 -96.68674,98.87544 -96.68674,99.42417 0,0.36348 96.61042,99.97995 96.96292,99.97995 0.14534,0 0.26426,-44.86593 0.26426,-99.70206 z"
   id="path149" /></svg>
